<svg width="688" height="704" viewBox="0 0 688 704" fill="none" xmlns="http://www.w3.org/2000/svg">
<rect width="688" height="700" fill="#010127"/>
<rect x="216" y="298" width="205" height="205" rx="102.5" fill="url(#paint0_linear_0_1)"/>
<g filter="url(#filter0_i_0_1)">
<rect x="320" y="335" width="87" height="87" rx="43.5" fill="url(#paint1_linear_0_1)"/>
</g>
<path d="M237.609 265.375H242.273V280.656L254.836 265.375H260.695L247.312 281.078L261.727 298H255.914L242.273 281.734V298H237.609V265.375ZM265.641 265.375H270.328V293.875H284.297V298H265.641V265.375ZM302.086 294.344C307.211 294.344 309.773 291.195 309.773 284.898V265.375H314.461V284.898C314.461 289.508 313.297 292.961 310.969 295.258C308.859 297.336 305.898 298.375 302.086 298.375C296.195 298.375 292.375 295.945 290.625 291.086C290 289.383 289.688 287.32 289.688 284.898V265.375H294.375V284.898C294.375 291.195 296.945 294.344 302.086 294.344ZM322.078 265.375H331.336C337.508 265.375 341.484 267.203 343.266 270.859C343.906 272.203 344.227 273.719 344.227 275.406C344.227 277.078 344 278.492 343.547 279.648C343.109 280.805 342.492 281.797 341.695 282.625C340.164 284.219 338.055 285.266 335.367 285.766C336.477 289.188 338.359 291.547 341.016 292.844C341.891 293.281 342.625 293.516 343.219 293.547C344.219 293.578 344.922 293.547 345.328 293.453V298H344.273C340.758 298 337.766 296.75 335.297 294.25C333.125 292.078 331.664 289.344 330.914 286.047H326.766V298H322.078V265.375ZM331.031 282.297C333.859 282.297 335.953 281.75 337.312 280.656C338.672 279.562 339.352 277.859 339.352 275.547C339.352 272.469 337.922 270.484 335.062 269.594C334.062 269.281 332.852 269.125 331.43 269.125H326.766V282.297H331.031ZM349.734 265.375H370.805V269.453H354.422V279.062H366.82V283H354.422V293.875H370.805V298H349.734V265.375ZM385.758 269.5H375.938V265.375H400.266V269.5H390.445V298H385.758V269.5Z" fill="white"/>
<g filter="url(#filter1_f_0_1)">
<rect x="113" y="180" width="23" height="18" rx="9" fill="#FF9900"/>
</g>
<g filter="url(#filter2_f_0_1)">
<rect x="427" y="169" width="110" height="94" rx="47" fill="white"/>
</g>
<g filter="url(#filter3_f_0_1)">
<rect x="136" y="511" width="110" height="94" rx="47" fill="black"/>
<rect x="136" y="511" width="110" height="94" rx="47" fill="black"/>
</g>
<g filter="url(#filter4_f_0_1)">
<rect x="209" y="530" width="110" height="94" rx="47" fill="black"/>
<rect x="209" y="530" width="110" height="94" rx="47" fill="black"/>
</g>
<defs>
<filter id="filter0_i_0_1" x="320" y="335" width="91" height="91" filterUnits="userSpaceOnUse" color-interpolation-filters="sRGB">
<feFlood flood-opacity="0" result="BackgroundImageFix"/>
<feBlend mode="normal" in="SourceGraphic" in2="BackgroundImageFix" result="shape"/>
<feColorMatrix in="SourceAlpha" type="matrix" values="0 0 0 0 0 0 0 0 0 0 0 0 0 0 0 0 0 0 127 0" result="hardAlpha"/>
<feOffset dx="89" dy="4"/>
<feGaussianBlur stdDeviation="2"/>
<feComposite in2="hardAlpha" operator="arithmetic" k2="-1" k3="1"/>
<feColorMatrix type="matrix" values="0 0 0 0 1 0 0 0 0 1 0 0 0 0 1 0 0 0 0.25 0"/>
<feBlend mode="normal" in2="shape" result="effect1_innerShadow_0_1"/>
</filter>
<filter id="filter1_f_0_1" x="33" y="100" width="183" height="178" filterUnits="userSpaceOnUse" color-interpolation-filters="sRGB">
<feFlood flood-opacity="0" result="BackgroundImageFix"/>
<feBlend mode="normal" in="SourceGraphic" in2="BackgroundImageFix" result="shape"/>
<feGaussianBlur stdDeviation="40" result="effect1_foregroundBlur_0_1"/>
</filter>
<filter id="filter2_f_0_1" x="297" y="39" width="370" height="354" filterUnits="userSpaceOnUse" color-interpolation-filters="sRGB">
<feFlood flood-opacity="0" result="BackgroundImageFix"/>
<feBlend mode="normal" in="SourceGraphic" in2="BackgroundImageFix" result="shape"/>
<feGaussianBlur stdDeviation="65" result="effect1_foregroundBlur_0_1"/>
</filter>
<filter id="filter3_f_0_1" x="56" y="431" width="270" height="254" filterUnits="userSpaceOnUse" color-interpolation-filters="sRGB">
<feFlood flood-opacity="0" result="BackgroundImageFix"/>
<feBlend mode="normal" in="SourceGraphic" in2="BackgroundImageFix" result="shape"/>
<feGaussianBlur stdDeviation="40" result="effect1_foregroundBlur_0_1"/>
</filter>
<filter id="filter4_f_0_1" x="129" y="450" width="270" height="254" filterUnits="userSpaceOnUse" color-interpolation-filters="sRGB">
<feFlood flood-opacity="0" result="BackgroundImageFix"/>
<feBlend mode="normal" in="SourceGraphic" in2="BackgroundImageFix" result="shape"/>
<feGaussianBlur stdDeviation="40" result="effect1_foregroundBlur_0_1"/>
</filter>
<linearGradient id="paint0_linear_0_1" x1="318.5" y1="298" x2="318.5" y2="503" gradientUnits="userSpaceOnUse">
<stop stop-color="#0500FF"/>
<stop offset="0.155" stop-color="#0024E3"/>
<stop offset="0.27" stop-color="#0D15C7"/>
<stop offset="0.38" stop-color="#0E15BA"/>
<stop offset="0.515" stop-color="#1600A0"/>
<stop offset="0.61" stop-color="#000E8E"/>
<stop offset="0.705" stop-color="#020071"/>
<stop offset="0.79" stop-color="#00034B"/>
<stop offset="0.86" stop-color="#050039"/>
<stop offset="0.895" stop-color="#00023E"/>
<stop offset="1" stop-color="#01032D"/>
</linearGradient>
<linearGradient id="paint1_linear_0_1" x1="363.5" y1="335" x2="363.5" y2="422" gradientUnits="userSpaceOnUse">
<stop stop-color="#00084F"/>
<stop offset="0.22" stop-color="#010042"/>
<stop offset="0.41" stop-color="#07005B"/>
<stop offset="0.62" stop-color="#040180"/>
<stop offset="0.82" stop-color="#170299"/>
<stop offset="1" stop-color="#0A196C"/>
</linearGradient>
</defs>
</svg>
